<svg width="30" height="30" viewBox="0 0 30 30" fill="none" xmlns="http://www.w3.org/2000/svg">
<path d="M25.3846 0H9.23077C8.00669 0 6.83275 0.395088 5.9672 1.09835C5.10165 1.80161 4.61538 2.75544 4.61538 3.75C3.39131 3.75 2.21737 4.14509 1.35181 4.84835C0.486262 5.55161 0 6.50544 0 7.5V26.25C0 27.2446 0.486262 28.1984 1.35181 28.9016C2.21737 29.6049 3.39131 30 4.61538 30H20.7692C21.9933 30 23.1672 29.6049 24.0328 28.9016C24.8984 28.1984 25.3846 27.2446 25.3846 26.25C26.6087 26.25 27.7826 25.8549 28.6482 25.1516C29.5137 24.4484 30 23.4946 30 22.5V3.75C30 2.75544 29.5137 1.80161 28.6482 1.09835C27.7826 0.395088 26.6087 0 25.3846 0V0ZM25.3846 24.375V7.5C25.3846 6.50544 24.8984 5.55161 24.0328 4.84835C23.1672 4.14509 21.9933 3.75 20.7692 3.75H6.92308C6.92308 3.25272 7.16621 2.77581 7.59898 2.42417C8.03176 2.07254 8.61873 1.875 9.23077 1.875H25.3846C25.9967 1.875 26.5836 2.07254 27.0164 2.42417C27.4492 2.77581 27.6923 3.25272 27.6923 3.75V22.5C27.6923 22.9973 27.4492 23.4742 27.0164 23.8258C26.5836 24.1775 25.9967 24.375 25.3846 24.375ZM2.30769 7.5C2.30769 7.00272 2.55082 6.52581 2.9836 6.17417C3.41638 5.82254 4.00335 5.625 4.61538 5.625H20.7692C21.3813 5.625 21.9682 5.82254 22.401 6.17417C22.8338 6.52581 23.0769 7.00272 23.0769 7.5V26.25C23.0769 26.7473 22.8338 27.2242 22.401 27.5758C21.9682 27.9275 21.3813 28.125 20.7692 28.125H4.61538C4.00335 28.125 3.41638 27.9275 2.9836 27.5758C2.55082 27.2242 2.30769 26.7473 2.30769 26.25V7.5Z" fill="#F2DD1C"/>
</svg>
